<svg width="24" height="20" viewBox="0 0 24 20" fill="none" xmlns="http://www.w3.org/2000/svg">
<path d="M21.3333 10.0001V4.16675H23.6667V11.1667H21.3333M21.3333 15.8334H23.6667V13.5001H21.3333M9.66668 11.1667C12.7817 11.1667 19 12.7301 19 15.8334V19.3334H0.333344V15.8334C0.333344 12.7301 6.55168 11.1667 9.66668 11.1667ZM9.66668 0.666748C10.9044 0.666748 12.0913 1.15841 12.9665 2.03358C13.8417 2.90875 14.3333 4.09574 14.3333 5.33341C14.3333 6.57109 13.8417 7.75808 12.9665 8.63325C12.0913 9.50842 10.9044 10.0001 9.66668 10.0001C8.429 10.0001 7.24202 9.50842 6.36685 8.63325C5.49168 7.75808 5.00001 6.57109 5.00001 5.33341C5.00001 4.09574 5.49168 2.90875 6.36685 2.03358C7.24202 1.15841 8.429 0.666748 9.66668 0.666748ZM9.66668 13.3834C6.20168 13.3834 2.55001 15.0867 2.55001 15.8334V17.1167H16.7833V15.8334C16.7833 15.0867 13.1317 13.3834 9.66668 13.3834ZM9.66668 2.88341C9.0169 2.88341 8.39373 3.14154 7.93427 3.601C7.4748 4.06047 7.21668 4.68363 7.21668 5.33341C7.21668 5.98319 7.4748 6.60636 7.93427 7.06583C8.39373 7.52529 9.0169 7.78341 9.66668 7.78341C10.3165 7.78341 10.9396 7.52529 11.3991 7.06583C11.8586 6.60636 12.1167 5.98319 12.1167 5.33341C12.1167 4.68363 11.8586 4.06047 11.3991 3.601C10.9396 3.14154 10.3165 2.88341 9.66668 2.88341Z" fill="black"/>
</svg>
